<svg xmlns="http://www.w3.org/2000/svg" version="1.1" xmlns:xlink="http://www.w3.org/1999/xlink" width="2000" height="492" viewBox="0 0 2000 492"><svg xml:space="preserve" width="2000" height="492" data-version="2" data-id="lg_LgRPCh7POUzhx0Usxq" viewBox="0 0 677 492" x="0" y="0"><rect width="100%" height="100%" fill="transparent"></rect><path fill="#001f3f" d="m114.118 49.271-4.33-14.16-1.48 14.16h-3.23l3.23-18.99h4.79l4.44 14.49 4.49-14.49h4.79l2.69 18.99h-5.33l-1.57-13.79-3.7 13.79z"></path><rect width="24.43" height="18.99" x="-12.21" y="-9.49" fill="none" rx="0" ry="0" transform="translate(117.8 40.28)"></rect><path fill="#001f3f" d="M151.038 40.181v.26q-.03 1.1-.23 2.29-.21 1.19-.58 2.37-.37 1.19-.88 2.35-.51 1.16-1.15 2.22-.64 1.06-1.38 1.99-.74.93-1.56 1.64l-1.96-1.13q.46-.78.84-1.7.37-.91.67-1.91.31-1.01.53-2.06.21-1.06.36-2.1.14-1.04.22-2.05.07-1.01.07-1.91 0-.72-.01-1.62-.01-.9-.1-1.84-.1-.93-.33-1.82-.22-.89-.66-1.59-.44-.7-1.14-1.12-.69-.43-1.72-.43-.91 0-1.56.31t-1.11.83q-.45.53-.72 1.21-.27.69-.42 1.44-.16.76-.2 1.53-.05.77-.05 1.46v3.68h5.68v2.17h-5.68v4.62h-5.23v-9.65q0-2.07.66-3.85.66-1.78 1.86-3.09 1.21-1.32 2.9-2.06 1.7-.74 3.78-.74 1.41 0 2.64.4 1.24.4 2.25 1.1 1.02.71 1.81 1.68.8.97 1.34 2.11.53 1.15.81 2.43.27 1.28.25 2.58"></path><rect width="18.31" height="23.42" x="-9.15" y="-11.71" fill="none" rx="0" ry="0" transform="translate(142.4 42.1)"></rect><path fill="#001f3f" d="M168.068 46.861v2.41h-13.63v-18.99h5.23v16.58z"></path><rect width="13.63" height="18.99" x="-6.82" y="-9.49" fill="none" rx="0" ry="0" transform="translate(161.75 40.28)"></rect><path fill="#001f3f" d="M184.168 46.861v2.41h-13.63v-18.99h5.23v16.58z"></path><rect width="13.63" height="18.99" x="-6.82" y="-9.49" fill="none" rx="0" ry="0" transform="translate(177.85 40.28)"></rect><path fill="#001f3f" d="M188.358 30.281h3.84q-.36 1.07-.62 2.21-.27 1.14-.44 2.28-.17 1.14-.26 2.25-.08 1.11-.08 2.1 0 .72.01 1.63 0 .9.1 1.83.1.94.32 1.83.23.89.67 1.59.44.7 1.13 1.12.7.42 1.72.42.91 0 1.57-.31.65-.31 1.1-.84.46-.52.73-1.21.27-.68.42-1.44.15-.75.2-1.52.04-.77.04-1.47v-10.47h5.24v9.65q0 2.07-.66 3.85-.66 1.78-1.86 3.1-1.2 1.31-2.9 2.05-1.7.75-3.77.75-1.42 0-2.65-.41-1.23-.4-2.25-1.1-1.02-.71-1.82-1.68-.79-.97-1.33-2.11-.53-1.15-.81-2.42t-.25-2.58v-.26q.01-1.06.21-2.19.2-1.12.53-2.26.34-1.13.82-2.24.47-1.12 1.05-2.15"></path><rect width="18.31" height="19.4" x="-9.16" y="-9.7" fill="none" rx="0" ry="0" transform="translate(195.4 40.48)"></rect><path fill="#001f3f" d="m229.838 40.411 4.69 2.23q-.48.99-1.1 1.9-.63.9-1.41 1.7l1.72 1.62-2.99 2.15-1.53-1.63q-1.2.65-2.5.96-1.29.31-2.65.31-1 0-2.09-.09-1.08-.08-2.14-.31-1.07-.23-2.02-.65-.96-.43-1.68-1.09-.71-.65-1.14-1.59-.43-.94-.43-2.22 0-1 .37-1.85.38-.86 1.02-1.53.64-.66 1.48-1.12.83-.45 1.77-.65-.46-.32-.9-.77-.44-.46-.79-.99-.35-.53-.57-1.11-.22-.58-.22-1.16 0-1.27.54-2.14.53-.87 1.39-1.4.85-.54 1.93-.78 1.07-.23 2.15-.23 1.07 0 2.17.23 1.09.24 1.97.78.87.54 1.43 1.41.55.86.55 2.13 0 .91-.36 1.64-.35.73-.93 1.32-.58.58-1.31 1.04-.72.46-1.45.83l4.42 4.21q.29-.75.45-1.55.16-.8.16-1.6m-5.11-5.6q0-.47-.12-.89-.13-.42-.37-.74-.24-.31-.62-.5t-.88-.19q-.54 0-.9.17-.36.18-.59.5-.23.31-.33.74-.1.42-.1.91 0 .36.19.76t.47.77q.29.36.6.69.32.33.58.57.4-.21.78-.5.37-.29.65-.64.29-.35.47-.76.17-.42.17-.89m2.51 11.58-5.79-5.82q-.91.5-1.3 1.32-.39.81-.39 1.81 0 .9.37 1.59.36.7.97 1.17.6.47 1.37.72.77.24 1.6.24.87 0 1.68-.24.8-.25 1.49-.79"></path><rect width="19.96" height="20.04" x="-9.98" y="-10.02" fill="none" rx="0" ry="0" transform="translate(225.05 40.5)"></rect><path fill="#001f3f" d="M249.898 42.181v7.09h-5.23v-18.99h10.25q1.34 0 2.56.36 1.21.36 2.15 1.07.94.72 1.5 1.81t.56 2.55q0 .92-.27 1.74-.26.81-.73 1.48-.47.67-1.1 1.21-.63.54-1.38.91-.75.37-1.59.57-.84.2-1.7.2zm6.49-6.11q0-1.83-.93-2.88-.93-1.05-2.8-1.05h-2.76v8.24h2.76q1 0 1.7-.32.71-.32 1.16-.9.45-.58.66-1.37.21-.78.21-1.72"></path><rect width="17.02" height="18.99" x="-8.51" y="-9.49" fill="none" rx="0" ry="0" transform="translate(253.68 40.28)"></rect><path fill="#001f3f" d="M282.488 40.181v.26q-.03 1.1-.23 2.29t-.57 2.37q-.37 1.19-.89 2.35-.51 1.16-1.15 2.22-.64 1.06-1.38 1.99-.74.93-1.55 1.64l-1.97-1.13q.46-.78.84-1.7.38-.91.68-1.91.3-1.01.52-2.06.22-1.06.36-2.1.15-1.04.22-2.05.07-1.01.07-1.91v-1.62q-.01-.9-.11-1.84-.1-.93-.32-1.82-.23-.89-.67-1.59-.44-.7-1.13-1.12-.7-.43-1.72-.43-.91 0-1.57.31-.65.31-1.1.83-.46.53-.73 1.21-.27.69-.42 1.44-.15.76-.2 1.53-.04.77-.04 1.46v3.68h5.68v2.17h-5.68v4.62h-5.24v-9.65q0-2.07.66-3.85.66-1.78 1.87-3.09 1.2-1.32 2.9-2.06 1.69-.74 3.77-.74 1.41 0 2.65.4 1.23.4 2.25 1.1 1.01.71 1.81 1.68t1.33 2.11q.53 1.15.81 2.43.28 1.28.25 2.58"></path><rect width="18.31" height="23.42" x="-9.16" y="-11.71" fill="none" rx="0" ry="0" transform="translate(273.85 42.1)"></rect><path fill="#001f3f" d="M288.318 36.241v13.03h-2.43v-18.99h3.4l11.54 13.04v-13.04h2.41v18.99h-3.4z"></path><rect width="17.35" height="18.99" x="-8.68" y="-9.49" fill="none" rx="0" ry="0" transform="translate(295.06 40.28)"></rect><path fill="#001f3f" d="M325.938 39.751q0 1.38-.36 2.63-.37 1.25-1.04 2.3-.67 1.05-1.59 1.91-.92.85-2.04 1.44-1.11.59-2.38.92-1.27.32-2.62.32h-8.37v-18.99h8.37q1.35 0 2.61.32 1.27.32 2.38.9 1.12.59 2.04 1.43.93.85 1.6 1.9.67 1.04 1.04 2.29.36 1.25.36 2.63m-5.31 0q0-1.54-.37-2.93-.38-1.39-1.17-2.45-.79-1.05-2.01-1.67-1.22-.62-2.92-.62h-1.39v15.34h1.39q1.67 0 2.89-.62 1.22-.63 2.02-1.69t1.18-2.45q.38-1.38.38-2.91"></path><rect width="18.4" height="18.99" x="-9.2" y="-9.49" fill="none" rx="0" ry="0" transform="translate(317.24 40.28)"></rect><path fill="#001f3f" d="M347.238 40.181v.26q-.03 1.1-.24 2.29-.2 1.19-.57 2.37-.37 1.19-.88 2.35-.52 1.16-1.16 2.22-.63 1.06-1.37 1.99-.74.93-1.56 1.64l-1.96-1.13q.46-.78.83-1.7.38-.91.68-1.91.31-1.01.52-2.06.22-1.06.37-2.1.14-1.04.21-2.05.08-1.01.08-1.91 0-.72-.01-1.62-.01-.9-.11-1.84-.09-.93-.32-1.82-.22-.89-.66-1.59-.45-.7-1.14-1.12-.69-.43-1.72-.43-.91 0-1.56.31t-1.11.83q-.45.53-.72 1.21-.27.69-.43 1.44-.15.76-.19 1.53-.05.77-.05 1.46v3.68h5.68v2.17h-5.68v4.62h-5.23v-9.65q0-2.07.66-3.85.66-1.78 1.86-3.09 1.21-1.32 2.9-2.06 1.7-.74 3.78-.74 1.41 0 2.64.4 1.23.4 2.25 1.1 1.02.71 1.81 1.68.8.97 1.33 2.11.54 1.15.82 2.43.27 1.28.25 2.58"></path><rect width="18.31" height="23.42" x="-9.15" y="-11.71" fill="none" rx="0" ry="0" transform="translate(338.6 42.1)"></rect><path fill="#001f3f" d="M373.838 43.471q0 1.22-.31 2.16-.31.94-.87 1.62-.56.69-1.32 1.15-.77.46-1.67.74-.91.27-1.91.39-1.01.12-2.05.12-1.38 0-2.54-.2-1.16-.21-2.18-.65-1.02-.44-1.96-1.14t-1.88-1.7l2.69-2.73q.37.91 1.01 1.68.65.77 1.42 1.33.77.55 1.6.87.83.31 1.57.31.87 0 1.64-.12.76-.13 1.33-.42.57-.29.89-.77.32-.48.32-1.21 0-.55-.25-.94-.25-.4-.65-.68-.4-.29-.92-.48-.51-.2-1.05-.34-.53-.14-1.04-.25-.52-.11-.91-.23l-1.63-.48q-.84-.26-1.66-.59-.81-.33-1.55-.76-.73-.43-1.28-1.01-.55-.59-.88-1.36-.33-.77-.33-1.77 0-1.2.29-2.13.3-.93.84-1.62.54-.68 1.28-1.15.74-.47 1.62-.75.88-.29 1.88-.41.99-.13 2.04-.13 1.42 0 2.59.27 1.16.26 2.15.75t1.81 1.16q.83.68 1.55 1.51l-2.69 2.73q-.31-.95-.87-1.71-.56-.77-1.25-1.31-.68-.55-1.44-.85-.75-.29-1.45-.29-.91 0-1.67.12-.76.13-1.31.41-.55.28-.85.77-.31.48-.31 1.19 0 .57.23.96.22.4.6.67.37.28.85.46.47.18.98.31t1 .23q.5.1.91.22.79.22 1.66.47.87.25 1.71.59.85.33 1.61.77.76.43 1.34 1.03.58.6.93 1.39.34.78.34 1.8"></path><rect width="16.69" height="19.83" x="-8.35" y="-9.91" fill="none" rx="0" ry="0" transform="translate(366 40.24)"></rect><path fill="#001f3f" d="M390.728 46.841v2.43h-13.63v-18.99h13.63v2.43h-8.4v5.87h6.49v2.41h-6.49v5.85z"></path><rect width="13.63" height="18.99" x="-6.82" y="-9.49" fill="none" rx="0" ry="0" transform="translate(384.41 40.28)"></rect><path fill="#001f3f" d="M399.208 42.181v7.09h-5.24v-18.99h9.34q1.31 0 2.54.31t2.17.98q.94.66 1.5 1.72.56 1.05.56 2.56 0 1.17-.49 2.21-.5 1.03-1.32 1.84-.82.81-1.89 1.35-1.07.53-2.22.7.52.87 1.08 1.65.56.78 1.13 1.46.57.67 1.14 1.25.57.57 1.08 1.05 1.21 1.1 2.4 1.91h-6.52q-.8-.75-1.51-1.81-.6-.89-1.22-2.22-.61-1.32-.94-3.06zm5.56-6.33q0-1.91-.93-2.81-.93-.9-2.79-.9h-1.84v8.24h1.84q.99 0 1.7-.37.7-.38 1.15-1.01.45-.62.66-1.44.21-.82.21-1.71"></path><rect width="17.02" height="18.99" x="-8.51" y="-9.49" fill="none" rx="0" ry="0" transform="translate(402.98 40.28)"></rect><path fill="#001f3f" d="m430.018 30.281-6.73 18.99h-4.78l-7.1-18.99h5.34l5.26 15.28 4.76-15.28z"></path><rect width="18.61" height="18.99" x="-9.3" y="-9.49" fill="none" rx="0" ry="0" transform="translate(421.21 40.28)"></rect><path fill="#001f3f" d="M437.528 30.281v18.99h-5.23v-18.99z"></path><rect width="5.23" height="18.99" x="-2.62" y="-9.49" fill="none" rx="0" ry="0" transform="translate(435.41 40.28)"></rect><path fill="#001f3f" d="m459.068 34.991-2.25.95q-.27-.86-.71-1.57-.44-.71-1.05-1.22-.62-.51-1.39-.79-.78-.28-1.7-.28-.99 0-1.82.32-.82.32-1.47.89-.66.57-1.14 1.32-.49.75-.82 1.6-.33.85-.49 1.76-.16.91-.16 1.78 0 1.38.33 2.76.32 1.37 1.02 2.46.71 1.09 1.83 1.77 1.12.68 2.72.68.84 0 1.59-.28.75-.28 1.37-.78.61-.49 1.07-1.17.46-.67.74-1.45l2.28.91q-.5 1.26-1.37 2.2-.87.94-1.99 1.56-1.11.62-2.38.93-1.27.31-2.57.31-1.39 0-2.68-.34-1.28-.35-2.39-.98t-2.01-1.53q-.91-.89-1.54-1.99-.64-1.09-.99-2.38-.35-1.28-.35-2.68 0-1.4.35-2.68.35-1.29.99-2.39.63-1.1 1.54-2 .9-.89 2.01-1.53 1.11-.63 2.39-.97 1.29-.34 2.68-.34 1.35 0 2.63.31 1.29.32 2.4.96 1.1.64 1.97 1.61.86.97 1.36 2.27"></path><rect width="18.32" height="19.81" x="-9.16" y="-9.9" fill="none" rx="0" ry="0" transform="translate(450.4 40.25)"></rect><path fill="#001f3f" d="M475.758 46.841v2.43h-13.63v-18.99h13.63v2.43h-8.4v5.87h6.49v2.41h-6.49v5.85z"></path><rect width="13.63" height="18.99" x="-6.82" y="-9.49" fill="none" rx="0" ry="0" transform="translate(469.44 40.28)"></rect><path fill="#001f3f" d="M494.558 43.471q0 1.22-.31 2.16-.31.94-.87 1.62-.56.69-1.32 1.15-.77.46-1.67.74-.9.27-1.91.39-1.01.12-2.05.12-1.37 0-2.53-.2-1.16-.21-2.19-.65-1.02-.44-1.96-1.14t-1.88-1.7l2.69-2.73q.37.91 1.02 1.68.64.77 1.41 1.33.77.55 1.61.87.83.31 1.56.31.87 0 1.64-.12.76-.13 1.33-.42.57-.29.89-.77.32-.48.32-1.21 0-.55-.25-.94-.25-.4-.65-.68-.4-.29-.92-.48-.51-.2-1.04-.34-.54-.14-1.05-.25-.52-.11-.91-.23-.78-.23-1.62-.48-.85-.26-1.66-.59-.82-.33-1.55-.76-.74-.43-1.29-1.01-.55-.59-.88-1.36-.33-.77-.33-1.77 0-1.2.29-2.13.3-.93.84-1.62.54-.68 1.28-1.15.74-.47 1.62-.75.89-.29 1.88-.41 1-.13 2.04-.13 1.42 0 2.59.27 1.17.26 2.15.75.99.49 1.82 1.16.82.68 1.55 1.51l-2.69 2.73q-.32-.95-.88-1.71-.56-.77-1.25-1.31-.68-.55-1.43-.85-.75-.29-1.45-.29-.91 0-1.68.12-.76.13-1.31.41-.55.28-.85.77-.3.48-.3 1.19 0 .57.22.96.23.4.6.67.38.28.85.46.48.18.98.31.51.13 1.01.23.49.1.9.22.79.22 1.66.47.87.25 1.71.59.85.33 1.61.77.77.43 1.35 1.03.58.6.92 1.39.34.78.34 1.8"></path><rect width="16.69" height="19.83" x="-8.35" y="-9.91" fill="none" rx="0" ry="0" transform="translate(486.71 40.24)"></rect><path fill="#001f3f" d="M106.448 79.271q-.3 0-.61-.1t-.52-.48q-.22-.37-.22-1.15 0-.5.1-1.31t.28-2.11q.12-.83.29-2.21.16-1.39.16-2.92 0-.67-.05-1.43-.05-.77-.2-1.39-.3.07-.45.07-.15 0-.23-.08-.07-.09-.07-.34 0-.5.11-1.01.11-.52.36-.87t.59-.5q.34-.15.71-.2.63-.07 1.59-.13.96-.07 2.03-.12 1.06-.05 1.93-.05 1.18 0 1.74.03.56.02.86.07.65.1.65.7 0 .43-.16.77-.16.33-.39.61-.27.4-.58.56-.32.16-.82.11-.42-.05-1.16-.08-.74-.04-1.69-.04-.4 0-1.05.02-.65.03-1.37.08-.03.85-.15 1.94-.13 1.08-.28 2.21.68-.05 1.63-.09.95-.04 1.95-.06 1-.03 1.77-.03.45 0 .65.12.2.11.2.48 0 .43-.21.92-.21.48-.55.83-.34.35-.71.33-.63-.05-1.76-.08-1.14-.02-2.39-.02h-.8q-.05.55-.09 1.09-.04.53-.04.98 0 .88.18 1.54.17.66.67 1.14.33.32.33.75 0 .55-.63 1-.62.45-1.6.45"></path><rect width="10.57" height="16.33" x="-5.29" y="-8.16" fill="none" rx="0" ry="0" transform="translate(110.71 71.6)"></rect><path fill="#001f3f" d="M118.228 79.271q-.73 0-1.08-.4-.35-.4-.35-1.4 0-.48.08-1.23.07-.75.17-1.62.15-1.08.27-2.25.11-1.18.11-2.25 0-1.53-.14-3.16-.14-1.64-.76-2.87-.23-.5-.23-.72 0-.33.29-.63t.71-.51q.43-.21.83-.21.65 0 .97.59.33.58.43 1.6.1 1.01.1 2.31 0 1.97-.16 3.42-.17 1.45-.32 2.55-.1.73-.18 1.38-.09.65-.09 1.17 0 .88.29 1.27.28.38.93.76.18.1.27.19.08.08.08.26 0 .2-.2.62-.2.43-.68.78-.49.35-1.34.35"></path><rect width="4.15" height="17.25" x="-2.08" y="-8.63" fill="none" rx="0" ry="0" transform="translate(118.87 71.15)"></rect><path fill="#001f3f" d="M122.778 85.921q-1.03 0-1.76-.55-.74-.55-.74-1.48 0-.72.44-1.23.43-.52 1.08-.52.3 0 .43.1.12.1.2.23.2.32.46.56.26.24.71.24.6 0 1.17-.43.56-.42 1.03-.97.43-.48 1.03-1.36.6-.89 1.2-2.02-.55.48-1.03.69-.47.21-.9.21-.52 0-1.02-.38-.5-.39-.63-1.47-.07-.82-.28-1.82-.22-1-.53-1.94-.31-.94-.76-1.59-.18-.3-.4-.45-.23-.15-.65-.2-.3-.02-.39-.17-.09-.15-.09-.48 0-.9.5-1.45.5-.55 1.35-.55 1.03 0 1.48.79.45.79.77 1.91.13.45.27 1.19.13.74.25 1.59.11.85.16 1.62.02.55.62.55.8 0 1.53-.5.72-.5 1.19-1.3.46-.8.46-1.67 0-.5-.13-.9-.12-.4-.42-.7-.25-.3-.4-.49-.15-.19-.15-.44 0-.42.4-.8.4-.37.96-.62.56-.25.99-.25.75 0 1 .71t.12 1.56q-.15 1.18-.6 2.78-.45 1.6-1.16 3.35t-1.62 3.39q-.92 1.63-1.94 2.86-.88 1.07-1.95 1.74-1.08.66-2.25.66"></path><rect width="12.11" height="17.05" x="-6.05" y="-8.53" fill="none" rx="0" ry="0" transform="translate(126.83 77.9)"></rect><path fill="#001f3f" d="M142.748 79.291q-.97 0-.97-.7 0-.2.07-.52.53-2.63.75-5.33-.37.1-.6.1-.25 0-.25-.45 0-.6.3-1.35.3-.75.7-1.1 0-1.32-.06-2.21-.06-.89-.24-1.56-.17-.68-.55-1.3-.22-.35-.22-.53 0-.32.34-.63.33-.32.82-.54.49-.23.91-.23.8 0 1.07.72.26.71.26 1.86-.03.55-.1 1.57-.08 1.03-.23 2.53 1.58-.1 3.08-.15 1.5-.05 2.87-.05h1.85v-.7q0-2.18-.57-3.83-.18-.42-.18-.6 0-.5.64-.92.64-.43 1.34-.43.77 0 1.04.57.26.56.26 1.58 0 .68-.13 1.83-.12 1.15-.35 2.8-.22 1.75-.35 2.89-.12 1.13-.12 2.01 0 1.65.85 2.45.32.37.32.75 0 .57-.67 1.01-.68.44-1.63.44-.6 0-.95-.33-.35-.32-.35-1.4 0-.37.08-1.12.07-.75.25-1.9l.19-1.4q.08-.68.13-1.28-.17.23-.33.35-.17.13-.44.1-.9-.05-1.79-.08-.89-.04-1.76-.04-1.83 0-3.48.22-.02.18-.03.59-.02.41-.02.69 0 1.07.1 2.22.1 1.15.2 2.05.08.63-.6.99-.67.36-1.45.36"></path><rect width="13.62" height="16.35" x="-6.81" y="-8.18" fill="none" rx="0" ry="0" transform="translate(148.99 71.62)"></rect><path fill="#001f3f" d="M159.428 66.591q-.7-.02-1.13-.42-.42-.4-.42-1.13.02-.77.52-1.26t1.28-.46q.72.02 1.14.42.41.4.38 1.13-.02.75-.5 1.24-.47.48-1.27.48m.02 12.68q-.75 0-1.17-.41-.43-.42-.43-1.42 0-.57.12-1.12.11-.55.26-1.08.17-.55.29-1.12.11-.58.11-1.23 0-.45-.13-.86-.12-.41-.55-.61-.32-.18-.56-.36-.24-.19-.24-.49 0-.35.33-.75.32-.4.86-.69.54-.29 1.11-.29.63 0 .92.33.28.32.38.82.1.5.1 1.03 0 .8-.12 1.56-.13.76-.25 1.41-.1.48-.15.88-.05.4-.05.75 0 .62.3.94.3.31.85.58.22.13.22.38 0 .2-.2.62-.2.43-.68.78-.49.35-1.32.35"></path><rect width="4.5" height="15.96" x="-2.25" y="-7.98" fill="none" rx="0" ry="0" transform="translate(159.9 71.79)"></rect><path fill="#001f3f" d="M166.778 85.921q-1.88 0-2.98-.78-1.1-.77-1.1-2 0-.9.57-1.6.56-.7 1.48-.7.53 0 .53.3 0 .18-.06.4-.07.23-.07.45 0 .7.8 1.04.8.34 1.93.34.7 0 1.42-.15.73-.15 1.22-.46.48-.32.48-.84 0-.58-.57-.85-.58-.28-1.45-.41-.88-.14-1.79-.25-.91-.12-1.56-.37-.83-.27-1.23-.67t-.4-1.03q0-1.17 1.43-1.87-.83-.43-1.24-1.2-.41-.78-.41-1.73 0-1.22.64-2.3.63-1.07 1.9-1.76 1.26-.69 3.16-.69.85 0 1.72.17.88.16 1.47.6.58.43.58 1.26 0 .3-.12.66-.13.36-.48.36-.15 0-.4-.06t-.45-.11q.05.25.09.55.04.3.04.62 0 1.48-1 2.67-1 1.18-2.93 1.41-.7.05-1.03.16-.34.11-.34.39 0 .25.3.36.3.11.77.16 1.53.13 2.7.43 1.18.3 1.84.96.66.66.66 1.89 0 1.42-.83 2.46-.84 1.04-2.24 1.61-1.4.58-3.05.58m.95-11.18q1.15 0 1.8-.62.65-.63.65-1.63 0-.27-.05-.56-.05-.29-.1-.49-.4-.12-.78-.16-.37-.04-.72-.04-1.33 0-2.08.5t-.75 1.38q0 .77.55 1.2.55.42 1.48.42"></path><rect width="10.55" height="17.13" x="-5.28" y="-8.56" fill="none" rx="0" ry="0" transform="translate(168.47 77.86)"></rect><path fill="#001f3f" d="M175.678 79.291q-.35 0-.6-.16t-.2-.44q.37-2 .64-4.06.26-2.06.26-4.16 0-1.85-.13-3.35-.12-1.5-.8-2.88-.12-.27-.2-.47-.07-.2-.07-.38 0-.47.56-.92.56-.45 1.19-.45.87 0 1.2 1.1.32 1.1.32 3.25 0 2.57-.3 4.49-.3 1.91-.52 2.91l.1.05q.5-1.33 1.21-2.48t1.66-1.85q.95-.7 2.2-.7 1.33 0 2.02.8.68.8.68 1.98 0 .5-.1.96-.1.46-.22.89-.13.4-.23.81-.1.41-.1.84 0 .77.38 1.26.37.49 1 .69.17.05.26.14.09.08.09.31 0 .22-.15.65-.15.42-.55.79-.4.36-1.18.36-1 0-1.55-.71-.55-.72-.55-1.84 0-.55.12-1.13.11-.57.26-1.1.12-.52.22-.98.1-.47.1-.79 0-1.15-1.2-1.15-1 0-1.76.71t-1.3 1.8q-.54 1.09-.89 2.24v.85q0 .92-.53 1.52-.54.6-1.34.6"></path><rect width="11.4" height="17.27" x="-5.7" y="-8.63" fill="none" rx="0" ry="0" transform="translate(180.78 71.16)"></rect><path fill="#001f3f" d="M188.598 79.291q-.35 0-.6-.16t-.2-.44q.38-2 .64-4.06.26-2.06.26-4.16 0-1.85-.12-3.35-.13-1.5-.8-2.88-.13-.27-.2-.47-.08-.2-.08-.38 0-.47.57-.92.56-.45 1.18-.45.88 0 1.2 1.1.33 1.1.33 3.25 0 2.57-.3 4.49-.3 1.91-.53 2.91l.1.05q.5-1.33 1.22-2.48.71-1.15 1.66-1.85.95-.7 2.2-.7 1.32 0 2.01.8.69.8.69 1.98 0 .5-.1.96-.1.46-.23.89-.12.4-.22.81-.1.41-.1.84 0 .77.37 1.26.38.49 1 .69.18.05.27.14.08.08.08.31 0 .22-.15.65-.15.42-.55.79-.4.36-1.17.36-1 0-1.55-.71-.55-.72-.55-1.84 0-.55.11-1.13.11-.57.26-1.1.13-.52.23-.98.1-.47.1-.79 0-1.15-1.2-1.15-1 0-1.76.71-.77.71-1.3 1.8-.54 1.09-.89 2.24v.85q0 .92-.54 1.52t-1.34.6"></path><rect width="11.4" height="17.27" x="-5.7" y="-8.63" fill="none" rx="0" ry="0" transform="translate(193.7 71.16)"></rect><path fill="#001f3f" d="M202.798 74.721q-.42 0-.57-.14-.15-.14-.15-.44v-.21q0-.14.02-.39.05-.5.08-1.22.02-.73.02-1.58 0-2.12-.2-3.17-.2-1.05-.32-1.53-.08-.42-.08-.55 0-.4.47-.88.46-.49 1.38-.49.88 0 1.12.64.23.63.23 2.06 0 1.07-.12 2.37-.13 1.3-.3 2.43-.18 1.12-.33 1.72-.22.93-.51 1.15-.29.23-.74.23m-.22 4.5q-.7 0-1.14-.45-.44-.45-.44-1.15 0-.73.48-1.2.47-.48 1.22-.48.7 0 1.13.43.42.42.42 1.12 0 .75-.47 1.24-.48.49-1.2.49"></path><rect width="3.8" height="15.1" x="-1.9" y="-7.55" fill="none" rx="0" ry="0" transform="translate(203.4 72.17)"></rect><path fill="#001f3f" d="M209.328 74.721q-.43 0-.58-.14-.15-.14-.15-.44v-.21q0-.14.03-.39.05-.5.07-1.22.03-.73.03-1.58 0-2.12-.2-3.17-.2-1.05-.33-1.53-.07-.42-.07-.55 0-.4.46-.88.46-.49 1.39-.49.87 0 1.11.64.24.63.24 2.06 0 1.07-.13 2.37-.12 1.3-.3 2.43-.17 1.12-.32 1.72-.23.93-.51 1.15-.29.23-.74.23m-.23 4.5q-.7 0-1.13-.45-.44-.45-.44-1.15 0-.73.47-1.2.48-.48 1.23-.48.7 0 1.12.43.43.42.43 1.12 0 .75-.48 1.24-.47.49-1.2.49"></path><rect width="3.8" height="15.1" x="-1.9" y="-7.55" fill="none" rx="0" ry="0" transform="translate(209.93 72.17)"></rect><path fill="#ff851b" d="m67.303 86.381 4.993-4.652-5.628-32.065 14.079-13.119c2.207-2.056 2.17-5.478.173-7.623s-5.41-2.421-7.616-.365l-14.08 13.119L27.637 33.8l-4.993 4.652 24.6 14.388-14.18 13.211-9.476-2.362-3.894 3.629 11.301 8.124 7.307 11.846 3.894-3.629-1.688-9.62L54.686 60.83z"></path></svg></svg>